<svg height="480pt" viewBox="0 0 480 480" width="480pt" xmlns="http://www.w3.org/2000/svg"><path d="m96 128h288v352h-288zm0 0" fill="#808080"/><path d="m96 128h264v352h-264zm0 0" fill="#999"/><path d="m256 320h96v48h-96zm0 0" fill="#a67c52"/><path d="m256 400h96v48h-96zm0 0" fill="#a67c52"/><path d="m256 320h72v48h-72zm0 0" fill="#c69c6d"/><path d="m128 320h96v48h-96zm0 0" fill="#a67c52"/><path d="m128 320h72v48h-72zm0 0" fill="#c69c6d"/><path d="m128 400h96v48h-96zm0 0" fill="#a67c52"/><path d="m128 400h72v48h-72zm0 0" fill="#c69c6d"/><path d="m256 400h72v48h-72zm0 0" fill="#c69c6d"/><path d="m208 128h64v32h-64zm0 0" fill="#e6e6e6"/><path d="m208 128h40v32h-40zm0 0" fill="#f2f2f2"/><path d="m480 88c0 48.601562-39.398438 88-88 88s-88-39.398438-88-88 39.398438-88 88-88 88 39.398438 88 88zm0 0" fill="#911d22"/><path d="m456 88c0-48.097656-34.027344-87.089844-76-87.089844s-76 38.992188-76 87.089844 34.027344 87.089844 76 87.089844 76-38.992188 76-87.089844zm0 0" fill="#c1272d"/><path d="m176 88c0 48.601562-39.398438 88-88 88s-88-39.398438-88-88 39.398438-88 88-88 88 39.398438 88 88zm0 0" fill="#beb85c"/><path d="m152 88c0-48.097656-34.027344-87.089844-76-87.089844s-76 38.992188-76 87.089844 34.027344 87.089844 76 87.089844 76-38.992188 76-87.089844zm0 0" fill="#fdf57a"/><path d="m80 96-16-56 8.847656-4.425781c4.703125-2.351563 9.886719-3.574219 15.152344-3.574219s10.449219 1.222656 15.152344 3.574219l8.847656 4.425781-16 56zm0 0" fill="#999"/><path d="m87.152344 35.574219c-2.28125-1.140625-4.6875-2.007813-7.152344-2.605469-2.464844.597656-4.871094 1.464844-7.152344 2.605469l-8.847656 4.425781 16 56 16-56zm0 0" fill="#b3b3b3"/><g fill="#4d4d4d"><path d="m152 200h176v16h-176zm0 0"/><path d="m344 200h16v16h-16zm0 0"/><path d="m152 232h176v16h-176zm0 0"/><path d="m344 232h16v16h-16zm0 0"/><path d="m152 264h176v16h-176zm0 0"/><path d="m344 264h16v16h-16zm0 0"/><path d="m120 200h16v16h-16zm0 0"/><path d="m120 232h16v16h-16zm0 0"/><path d="m120 264h16v16h-16zm0 0"/></g><path d="m440 136h-16c0-17.648438-14.351562-32-32-32s-32 14.351562-32 32h-16c0-26.472656 21.527344-48 48-48s48 21.527344 48 48zm0 0" fill="#661418"/><path d="m364 64c-6.617188 0-12-5.382812-12-12s5.382812-12 12-12 12 5.382812 12 12-5.382812 12-12 12zm0 0" fill="#661418"/><path d="m420 64c-6.617188 0-12-5.382812-12-12s5.382812-12 12-12 12 5.382812 12 12-5.382812 12-12 12zm0 0" fill="#661418"/><path d="m88 152c-8.824219 0-16-7.175781-16-16s7.175781-16 16-16 16 7.175781 16 16-7.175781 16-16 16zm0-16.007812v.007812zm0 0" fill="#999"/></svg>