<svg height="463pt" viewBox="0 -13 463.5 463" width="463pt" xmlns="http://www.w3.org/2000/svg"><path d="m40.460938 142.277344h382.574218v250.144531h-382.574218zm0 0" fill="#eae3d3"/><path d="m395.574219 142.277344h27.460937v250.144531h-27.460937zm0 0" fill="#e0d4ba"/><path d="m137.296875 236.105469h188.898437v156.316406h-188.898437zm0 0" fill="#89e5ff"/><path d="m301.882812 236.105469h24.316407v156.316406h-24.316407zm0 0" fill="#66d4dd"/><path d="m7.996094 392.417969h447.5v36.210937h-447.5zm0 0" fill="#857e87"/><path d="m419.285156 392.417969h36.210938v36.210937h-36.210938zm0 0" fill="#736b75"/><path d="m97.628906 199.890625h268.238282v36.214844h-268.238282zm0 0" fill="#857e87"/><path d="m337.53125 199.890625h28.335938v36.214844h-28.335938zm0 0" fill="#736b75"/><path d="m385.035156 117.90625c-97.808594-42.324219-208.769531-42.324219-306.578125 0l-30.9375-71.5c117.550781-50.867188 250.90625-50.867188 368.457031 0zm0 0" fill="#857e87"/><path d="m393.839844 37.503906-31 71.632813c7.464844 2.695312 14.871094 5.597656 22.195312 8.765625l30.941406-71.496094c-7.320312-3.160156-14.699218-6.128906-22.136718-8.902344zm0 0" fill="#736b75"/><path d="m125.964844 100.949219v41.328125h22.667968v-47.027344c-7.597656 1.671875-15.152343 3.574219-22.667968 5.699219zm0 0" fill="#857e87"/><path d="m314.863281 95.25v47.027344h22.667969v-41.328125c-7.507812-2.140625-15.066406-4.039063-22.667969-5.699219zm0 0" fill="#857e87"/><g fill="#191210"><path d="m423.035156 237.207031c-4.417968 0-8 3.582031-8 8v25.710938c0 4.417969 3.582032 8 8 8 4.417969 0 8-3.582031 8-8v-25.710938c0-4.417969-3.582031-8-8-8zm0 0"/><path d="m455.5 384.40625h-24.464844v-76.160156c0-4.421875-3.582031-8-8-8-4.417968 0-8 3.578125-8 8v76.160156h-80.835937v-140.300781h31.667969c4.417968 0 8-3.582031 8-8v-36.21875c0-4.417969-3.582032-8-8-8h-268.238282c-4.417968 0-8 3.582031-8 8v36.21875c0 4.417969 3.582032 8 8 8h31.667969v39.554687c0 4.417969 3.582031 8 8 8s8-3.582031 8-8v-39.554687h78.449219v140.300781h-78.449219v-74.03125c0-4.417969-3.582031-8-8-8s-8 3.582031-8 8v74.03125h-80.835937v-234.128906h366.574218v67.730468c0 4.417969 3.582032 8 8 8 4.417969 0 8-3.582031 8-8v-75.730468c0-4.417969-3.582031-8-8-8h-77.503906v-22.558594c12.335938 3.878906 24.460938 8.394531 36.328125 13.53125 4.054687 1.753906 8.765625-.109375 10.519531-4.164062l30.9375-71.476563c1.753906-4.054687-.109375-8.765625-4.164062-10.519531-23.050782-9.972656-46.859375-18.09375-71.199219-24.285156-4.285156-1.089844-8.636719 1.5-9.726563 5.785156-1.085937 4.28125 1.503907 8.632812 5.785157 9.722656 20.929687 5.324219 41.457031 12.125 61.425781 20.347656l-24.589844 56.800782c-13.332031-5.433594-26.949218-10.125-40.800781-14.058594-.109375-.039063-.203125-.113282-.320313-.148438-1.171874-.335937-2.398437-.640625-3.597656-.96875l-2-.535156c-5.699218-1.53125-11.53125-2.996094-17.53125-4.320312-.132812-.03125-.269531 0-.402344-.042969-55.636718-12.117188-113.230468-12.117188-168.867187 0-.136719.027343-.273437 0-.398437.042969-6 1.324218-11.832032 2.796874-17.535157 4.320312l-2 .535156c-1.199219.328125-2.429687.632813-3.597656.96875-.117187.03125-.203125.109375-.320313.148438-13.847656 3.933594-27.46875 8.625-40.800781 14.058594l-24.609375-56.816407c76.707032-31.628906 160.59375-41.703125 242.609375-29.140625 2.851563.488282 5.746094-.601562 7.570313-2.851562 1.820312-2.25 2.285156-5.308594 1.210937-7.996094-1.070312-2.6875-3.511719-4.589844-6.382812-4.96875-87.671875-13.433594-177.355469-1.859375-258.746094 33.386719-4.054687 1.757812-5.917969 6.46875-4.164063 10.523437l30.9375 71.492188c1.753907 4.054687 6.464844 5.917968 10.519532 4.164062 11.867187-5.136718 23.992187-9.652344 36.328125-13.53125v22.554688h-77.488281c-4.417969 0-8 3.582031-8 8v242.128906h-24.460938c-4.417969 0-8 3.582031-8 8v36.214844c0 4.417968 3.582031 8 8 8h447.5c4.417969 0 8-3.582032 8-8v-36.214844c0-4.417969-3.582031-8-8-8zm-125.96875-250.128906h-6.667969v-28.886719c2.226563.550781 4.449219 1.121094 6.667969 1.710937zm-22.667969-32.488282v32.488282h-150.230469v-32.488282c49.578126-9.980468 100.652344-9.980468 150.230469 0zm-172.898437 5.3125c2.21875-.59375 4.441406-1.164062 6.667968-1.710937v28.886719h-6.667968zm3.332031 121.003907h-31.667969v-20.21875h252.238282v20.21875zm102.449219 16h78.453125v140.300781h-78.453125zm207.753906 176.527343h-431.5v-20.226562h431.5zm0 0"/><path d="m260.546875 294.191406c-4.417969 0-8 3.582032-8 8v27.332032c0 4.417968 3.582031 8 8 8s8-3.582032 8-8v-27.332032c0-4.417968-3.582031-8-8-8zm0 0"/><path d="m210.949219 329.523438v-27.332032c0-4.417968-3.582031-8-8-8s-8 3.582032-8 8v27.332032c0 4.417968 3.582031 8 8 8s8-3.582032 8-8zm0 0"/><path d="m114.367188 46.808594c-10.78125 3.523437-21.429688 7.558594-31.941407 12.105468l3.078125 7.117188c3.652344-1.582031 7.328125-3.097656 11.019532-4.554688l9.929687 25.199219c2.792969-1.101562 5.59375-2.167969 8.398437-3.199219l-9.246093-25.449218c3.703125-1.332032 7.421875-2.617188 11.15625-3.851563zm0 0"/><path d="m157.578125 71.117188c2.902344-.636719 5.808594-1.230469 8.722656-1.789063l-6.554687-34.214844c-3.214844.613281-6.421875 1.273438-9.621094 1.976563l2.824219 12.878906c-5.066407 1.113281-10.121094 2.335938-15.160157 3.671875l-3.386718-12.746094c-3.175782.84375-6.339844 1.730469-9.5 2.660157l9.832031 33.421874c2.863281-.839843 5.730469-1.640624 8.605469-2.402343l-3.5625-13.425781c4.921875-1.308594 9.867187-2.507813 14.832031-3.601563zm0 0"/><path d="m203.40625 29.425781c-10.289062.722657-20.546875 1.875-30.773438 3.457031l5.335938 34.425782c9.253906-1.433594 18.546875-2.480469 27.878906-3.132813l-.542968-7.738281c-6.523438.457031-13.035157 1.101562-19.53125 1.929688l-.78125-6.082032c6.003906-.769531 12.023437-1.382812 18.050781-1.835937l-.582031-7.738281c-6.164063.464843-12.3125 1.089843-18.453126 1.878906l-.6875-5.382813c6.859376-.875 13.738282-1.554687 20.632813-2.039062zm0 0"/><path d="m227.402344 28.519531c-5.125 11.636719-9.757813 23.371094-13.902344 35.199219 3.3125-.15625 6.625-.261719 9.941406-.320312.660156-1.699219 1.328125-3.398438 2-5.097657 4.765625-.054687 9.53125-.007812 14.296875.140625.648438 1.710938 1.289063 3.421875 1.917969 5.132813 3.3125.125 6.621094.296875 9.933594.519531-3.894532-11.898438-8.296875-23.71875-13.210938-35.464844-3.65625-.089844-7.316406-.128906-10.976562-.109375zm.800781 22.96875c1.472656-3.570312 2.992187-7.132812 4.558594-10.683593 1.492187 3.582031 2.941406 7.171874 4.347656 10.765624-2.960937-.0625-5.925781-.089843-8.894531-.082031zm0 0"/><path d="m274.699219 66.445312 3.671875-26.835937c3.855468.53125 7.699218 1.121094 11.539062 1.765625l1.300782-7.648438c-11.085938-1.882812-22.222657-3.253906-33.417969-4.117187l-.601563 7.734375c3.890625.300781 7.777344.664062 11.660156 1.09375l-2.960937 26.914062c2.941406.324219 5.878906.691407 8.808594 1.09375zm0 0"/><path d="m330.074219 50.585938 2.160156-7.453126c-10-2.898437-20.082031-5.367187-30.246094-7.402343l-6.847656 34.15625c9.199219 1.847656 18.332031 4.082031 27.394531 6.707031l2.160156-7.453125c-6.339843-1.835937-12.710937-3.488281-19.125-4.953125l1.367188-6c5.925781 1.351562 11.820312 2.863281 17.6875 4.527344l2.117188-7.460938c-5.996094-1.707031-12.023438-3.25-18.082032-4.628906l1.199219-5.292969c6.777344 1.558594 13.519531 3.3125 20.214844 5.253907zm0 0"/><path d="m370.367188 69.46875c2.820312-6.449219-1.125-13.554688-9.367188-16.699219-5.773438-2.203125-11.589844-4.257812-17.445312-6.15625l-10.761719 33.132813c2.839843.921875 5.671875 1.882812 8.496093 2.886718l3.644532-10.273437c1.429687.511719 2.859375 1.027344 4.285156 1.554687 1.304688 4.355469 2.519531 8.710938 3.644531 13.070313 3.167969 1.257813 6.320313 2.566406 9.460938 3.921875-1.101563-4.820312-2.3125-9.648438-3.628907-14.476562 4.96875.371093 9.636719-2.414063 11.671876-6.960938zm-9.171876-3.785156c-.902343 2.265625-3.675781 2.902344-6.734374 1.742187-2.289063-.867187-4.582032-1.710937-6.886719-2.527343l2.714843-7.640626c2.355469.832032 4.699219 1.691407 7.039063 2.578126 3.144531 1.1875 4.769531 3.589843 3.867187 5.84375zm0 0"/></g></svg>