<?xml version="1.0" encoding="iso-8859-1"?>
<!-- Generator: Adobe Illustrator 19.0.0, SVG Export Plug-In . SVG Version: 6.00 Build 0)  -->
<svg version="1.1" id="Capa_1" xmlns="http://www.w3.org/2000/svg" xmlns:xlink="http://www.w3.org/1999/xlink" x="0px" y="0px"
	 viewBox="0 0 512.001 512.001" style="enable-background:new 0 0 512.001 512.001;" xml:space="preserve">
<path style="fill:#FD6E2E;" d="M493.897,177.038c-2.586-2.586-6.538-3.017-9.751-1.269c-8.012,4.357-18.247,3.146-25.024-3.63
	c-6.777-6.777-7.987-17.012-3.63-25.024c1.747-3.213,1.317-7.165-1.269-9.751l-19.953-19.953c-2.586-2.586-6.538-3.017-9.751-1.269
	c-8.012,4.357-18.247,3.146-25.024-3.63s-7.987-17.012-3.63-25.024c1.747-3.213,1.317-7.165-1.269-9.751L374.639,57.78
	c-2.586-2.586-6.538-3.017-9.751-1.269c-8.012,4.357-18.247,3.146-25.024-3.63s-7.987-17.012-3.63-25.024
	c1.747-3.213,1.317-7.165-1.269-9.751l-8.279-8.279c-3.148-3.148-8.253-3.148-11.401,0L9.826,315.282
	c-3.148,3.148-3.148,8.253,0,11.401l8.315,8.315c2.573,2.573,6.502,3.014,9.709,1.294c7.996-4.29,18.17-3.063,24.917,3.685
	c6.747,6.747,7.974,16.921,3.685,24.917c-1.72,3.207-1.279,7.135,1.294,9.709l20.025,20.025c2.573,2.573,6.502,3.014,9.709,1.294
	c7.996-4.29,18.17-3.063,24.917,3.685c6.747,6.747,7.974,16.921,3.685,24.917c-1.72,3.207-1.279,7.135,1.294,9.709l20.025,20.025
	c2.573,2.573,6.502,3.014,9.709,1.294c7.996-4.29,18.17-3.063,24.917,3.685c6.747,6.747,7.974,16.921,3.685,24.917
	c-1.72,3.207-1.279,7.135,1.294,9.709l8.315,8.315c3.148,3.148,8.253,3.148,11.401,0l305.457-305.457
	c3.148-3.148,3.148-8.253,0-11.401L493.897,177.038z"/>
<g>
	<path style="fill:#F45721;" d="M502.176,185.317l-8.279-8.279c-2.586-2.586-6.538-3.017-9.751-1.269
		c-8.012,4.356-18.248,3.146-25.024-3.63c-1.346-1.346-2.463-2.833-3.37-4.407L167.617,455.865c1.575,0.907,3.062,2.023,4.408,3.37
		c6.747,6.747,7.974,16.921,3.685,24.917c-1.72,3.207-1.279,7.135,1.294,9.709l8.315,8.315c3.148,3.148,8.253,3.148,11.401,0
		l305.457-305.457C505.324,193.57,505.324,188.466,502.176,185.317z"/>
	<path style="fill:#F45721;" d="M502.176,185.317l-8.279-8.279c-2.586-2.586-6.538-3.017-9.751-1.27
		c-8.012,4.357-18.248,3.146-25.024-3.63c-6.777-6.777-7.987-17.012-3.63-25.024c1.747-3.213,1.317-7.165-1.269-9.751L434.27,117.41
		c-2.586-2.586-6.538-3.017-9.751-1.269c-8.012,4.356-18.248,3.146-25.024-3.631c-6.777-6.777-7.987-17.012-3.63-25.024
		c1.747-3.213,1.317-7.165-1.269-9.752L374.639,57.78c-2.586-2.586-6.538-3.016-9.751-1.27c-8.012,4.357-18.247,3.146-25.024-3.63
		c-6.777-6.777-7.987-17.012-3.63-25.024c1.747-3.213,1.317-7.165-1.269-9.751l-8.279-8.28c-3.148-3.148-8.253-3.148-11.401,0
		l-50.404,50.402L451.775,247.12l50.401-50.401C505.324,193.57,505.324,188.466,502.176,185.317z"/>
</g>
<path style="fill:#FEC93E;" d="M206.237,435.601L76.4,305.764c-0.878-0.878-0.878-2.301,0-3.179l180.45-180.45
	c0.878-0.878,2.301-0.878,3.179,0l129.837,129.837c0.878,0.878,0.878,2.301,0,3.179l-180.45,180.45
	C208.538,436.479,207.115,436.479,206.237,435.601z"/>
<path style="fill:#EFB533;" d="M256.85,122.135l-36.117,36.117l110.315,110.315c0.878,0.878,0.878,2.301,0,3.179L186.715,416.079
	l19.522,19.522c0.878,0.878,2.301,0.878,3.179,0l180.45-180.45c0.878-0.878,0.878-2.301,0-3.179L260.029,122.135
	C259.151,121.257,257.728,121.257,256.85,122.135z"/>
<path d="M136.281,322.463c-0.391-0.195-0.684-0.488-0.977-0.781c-2.54-2.54-0.684-7.914,2.149-10.747
	c1.758-1.758,3.712-2.54,5.765-1.465l71.808,39.568l-39.666-71.71c-1.075-2.053-0.293-4.006,1.367-5.667
	c2.931-2.931,8.402-4.689,10.845-2.247c0.293,0.293,0.488,0.684,0.683,1.074l43.965,82.653c1.661,3.029-0.098,7.132-3.029,10.063
	s-6.936,4.592-10.063,3.029L136.281,322.463z"/>
<path d="M196.755,258.275c-2.345-2.345-0.684-5.959,1.856-8.499c2.638-2.638,6.155-4.201,8.5-1.857l64.677,64.677
	c2.247,2.247,0.879,5.959-1.758,8.597c-2.54,2.54-6.35,4.006-8.598,1.759L196.755,258.275z"/>
<path d="M222.449,232.582c-1.758-1.758-1.758-4.885,0.684-7.328l19.051-19.051c12.017-12.017,27.16-15.632,42.889,0.098l0.782,0.781
	c15.632,15.632,11.919,31.264-0.391,43.573l-12.115,12.115l24.132,24.132c2.247,2.247,0.879,5.96-1.759,8.598
	c-2.54,2.54-6.35,4.006-8.598,1.759L222.449,232.582z M238.667,228.087l26.477,26.477l12.114-12.114
	c7.23-7.23,7.523-15.73-1.074-24.327l-1.173-1.173c-8.598-8.598-17-8.207-24.229-0.978L238.667,228.087z"/>
<path d="M507.459,180.035l-8.279-8.279l0,0c-4.908-4.907-12.383-5.932-18.603-2.55c-5.272,2.867-11.922,1.901-16.172-2.35
	c-4.25-4.25-5.217-10.901-2.35-16.173c3.382-6.22,2.357-13.695-2.55-18.603l-19.953-19.953c-4.906-4.908-12.383-5.933-18.604-2.55
	c-5.271,2.867-11.922,1.9-16.172-2.35s-5.217-10.901-2.35-16.173c3.382-6.22,2.358-13.696-2.55-18.603l-19.955-19.954
	c-4.907-4.907-12.382-5.933-18.603-2.55c-5.273,2.865-11.923,1.9-16.173-2.35s-5.216-10.901-2.35-16.173
	c3.382-6.219,2.357-13.695-2.55-18.603l-8.279-8.279c-6.056-6.056-15.909-6.057-21.966,0L4.543,310
	c-6.056,6.056-6.055,15.91,0,21.966l8.315,8.315c4.879,4.879,12.323,5.92,18.523,2.594c5.258-2.82,11.878-1.84,16.103,2.384
	c4.224,4.224,5.204,10.846,2.384,16.103c-3.327,6.201-2.284,13.645,2.594,18.523l20.025,20.025
	c4.878,4.879,12.323,5.92,18.523,2.594c5.258-2.82,11.879-1.839,16.103,2.384c4.224,4.224,5.204,10.845,2.384,16.103
	c-3.327,6.201-2.284,13.644,2.594,18.523l20.025,20.025c4.879,4.879,12.324,5.921,18.524,2.595
	c5.256-2.821,11.878-1.84,16.102,2.384s5.204,10.846,2.384,16.103c-3.326,6.201-2.284,13.644,2.594,18.523l8.315,8.315
	c3.028,3.028,7.005,4.542,10.983,4.542c3.977,0,7.955-1.514,10.983-4.542L507.459,202
	C513.515,195.944,513.515,186.09,507.459,180.035z M496.894,191.435l-45.119,45.119l-13.571-13.571
	c-2.917-2.917-7.648-2.917-10.565,0c-2.918,2.917-2.918,7.648,0,10.565l13.571,13.571L191.437,496.892
	c-0.231,0.231-0.605,0.23-0.836,0l-8.315-8.315c-0.211-0.212-0.144-0.611,0.007-0.894c5.91-11.016,3.86-24.887-4.985-33.732
	c-5.468-5.468-12.854-8.339-20.301-8.339c-4.601,0-9.224,1.096-13.431,3.354c-0.283,0.151-0.683,0.217-0.894,0.006l-20.025-20.025
	c-0.211-0.212-0.144-0.611,0.007-0.894c6.004-11.19,4-24.746-4.985-33.732c-8.985-8.985-22.542-10.989-33.731-4.985
	c-0.282,0.151-0.682,0.219-0.894,0.007l-20.025-20.025c-0.212-0.212-0.144-0.612,0.007-0.894c5.91-11.016,3.86-24.887-4.986-33.732
	c-8.845-8.845-22.717-10.895-33.731-4.985c-0.282,0.151-0.682,0.219-0.894,0.007l-8.315-8.315c-0.23-0.23-0.23-0.605,0-0.835
	L264.881,70.792l14.285,14.285c1.459,1.459,3.371,2.188,5.283,2.188s3.824-0.73,5.283-2.188c2.918-2.917,2.918-7.648,0-10.565
	l-14.285-14.285l45.118-45.118c0.231-0.231,0.605-0.23,0.836,0l8.279,8.279c0.213,0.214,0.144,0.616-0.011,0.901
	c-6.007,11.047-3.987,24.977,4.911,33.875c8.898,8.899,22.829,10.918,33.876,4.911c0.285-0.154,0.687-0.224,0.9-0.011l19.953,19.953
	c0.213,0.213,0.143,0.616-0.011,0.9c-6.007,11.047-3.987,24.977,4.911,33.876c8.899,8.899,22.829,10.918,33.875,4.911
	c0.285-0.155,0.687-0.223,0.9-0.011l19.953,19.953c0.213,0.213,0.143,0.615-0.011,0.9c-6.007,11.047-3.987,24.977,4.911,33.876
	s22.827,10.918,33.875,4.911c0.285-0.155,0.688-0.224,0.901-0.011l8.279,8.279C497.124,190.83,497.124,191.205,496.894,191.435z"/>
<path d="M342.977,194.517c-2.917-2.917-7.648-2.917-10.565,0c-2.918,2.917-2.918,7.648,0,10.565l48.479,48.479L207.826,426.625
	l-48.479-48.479c-2.917-2.917-7.648-2.917-10.565,0c-2.918,2.917-2.918,7.648,0,10.565l52.172,52.172
	c1.836,1.836,4.276,2.847,6.872,2.847c2.597,0,5.038-1.012,6.872-2.847L395.15,260.432c3.787-3.789,3.787-9.953-0.001-13.743
	L342.977,194.517z"/>
<path d="M307.296,179.967c2.917,2.917,7.648,2.917,10.565,0c2.918-2.917,2.918-7.648,0-10.565l-52.551-52.551
	c-3.788-3.787-9.953-3.787-13.743,0.001L71.119,297.301c-1.837,1.836-2.848,4.276-2.848,6.873c0,2.596,1.011,5.037,2.847,6.872
	l52.55,52.55c1.459,1.459,3.371,2.188,5.283,2.188c1.912,0,3.824-0.73,5.283-2.188c2.918-2.917,2.918-7.648,0-10.565l-48.856-48.856
	l173.063-173.063L307.296,179.967z"/>
<path d="M397.085,181.865c-2.917-2.918-7.648-2.918-10.565,0c-2.918,2.917-2.918,7.648,0,10.565l16.003,16.004
	c1.459,1.459,3.371,2.188,5.283,2.188s3.824-0.73,5.283-2.188c2.918-2.917,2.918-7.648,0-10.565L397.085,181.865z"/>
<path d="M361.067,166.978c1.459,1.459,3.371,2.188,5.283,2.188s3.824-0.73,5.283-2.188c2.918-2.917,2.918-7.648,0-10.565
	l-15.666-15.666c-2.917-2.917-7.648-2.917-10.565,0c-2.918,2.917-2.918,7.648,0,10.565L361.067,166.978z"/>
<path d="M320.285,126.196c1.459,1.459,3.371,2.188,5.283,2.188s3.824-0.73,5.283-2.188c2.918-2.917,2.918-7.648,0-10.565
	l-16.003-16.003c-2.917-2.917-7.648-2.917-10.565,0c-2.918,2.917-2.918,7.648,0,10.565L320.285,126.196z"/>
<g>
</g>
<g>
</g>
<g>
</g>
<g>
</g>
<g>
</g>
<g>
</g>
<g>
</g>
<g>
</g>
<g>
</g>
<g>
</g>
<g>
</g>
<g>
</g>
<g>
</g>
<g>
</g>
<g>
</g>
</svg>
